<?xml version="1.0" encoding="utf-8"?>
<!-- Generator: Adobe Illustrator 16.0.0, SVG Export Plug-In . SVG Version: 6.00 Build 0)  -->
<!DOCTYPE svg PUBLIC "-//W3C//DTD SVG 1.1//EN" "http://www.w3.org/Graphics/SVG/1.1/DTD/svg11.dtd">
<svg version="1.1" xmlns="http://www.w3.org/2000/svg" xmlns:xlink="http://www.w3.org/1999/xlink" x="0px" y="0px"
	 width="242.918px" height="215.926px" viewBox="0 0 242.918 215.926" enable-background="new 0 0 242.918 215.926"
	 xml:space="preserve">
<g id="Layer_1">
	<path fill="#4D4D4D" d="M183.101,117.972c-0.569-0.569-1.26-0.854-2.074-0.854H70.68V38.02c0-0.814-0.285-1.506-0.854-2.075
		c-0.57-0.569-1.26-0.854-2.075-0.854h-5.859c-0.814,0-1.505,0.285-2.075,0.854c-0.569,0.569-0.854,1.261-0.854,2.075v87.887
		c0,0.813,0.285,1.505,0.854,2.074c0.57,0.57,1.261,0.854,2.075,0.854h119.135c0.814,0,1.505-0.283,2.074-0.854
		c0.571-0.569,0.855-1.261,0.855-2.074v-5.86C183.956,119.232,183.672,118.542,183.101,117.972z"/>
	<path fill="#990099" d="M153.143,57.979l-20.626,20.625L116.892,62.98L81.494,97.646l8.301,8.301l27.097-26.853l15.625,15.135
		l28.907-28.191C161.34,65.869,154.122,58.814,153.143,57.979z"/>
</g>
<g id="Layer_2">
	<g>
		<path fill="#B3B3B3" d="M222.675,0c5.623,0,10.401,1.967,14.339,5.904c3.937,3.936,5.904,8.716,5.904,14.339v121.458
			c0,5.624-1.968,10.404-5.904,14.339c-3.938,3.937-8.716,5.904-14.339,5.904h-80.973l10.121,40.486h30.366
			c1.967,0,3.584,0.633,4.85,1.897c1.265,1.266,1.897,2.882,1.897,4.851s-0.633,3.584-1.897,4.85
			c-1.266,1.265-2.883,1.897-4.85,1.897H60.729c-1.968,0-3.585-0.633-4.85-1.897c-1.266-1.266-1.898-2.881-1.898-4.85
			s0.633-3.585,1.898-4.851c1.265-1.265,2.882-1.897,4.85-1.897h30.364l10.122-40.486H20.243c-5.623,0-10.402-1.968-14.339-5.904
			C1.968,152.105,0,147.325,0,141.701V20.243C0,14.62,1.968,9.84,5.904,5.904C9.841,1.967,14.62,0,20.243,0H222.675z
			 M229.423,141.701V20.243c0-1.968-0.633-3.585-1.898-4.85c-1.265-1.265-2.883-1.897-4.85-1.897H20.243
			c-1.968,0-3.585,0.632-4.85,1.897c-1.266,1.265-1.897,2.882-1.897,4.85v121.458c0,1.968,0.632,3.585,1.897,4.851
			c1.265,1.265,2.882,1.897,4.85,1.897h202.432c1.967,0,3.585-0.633,4.85-1.897C228.79,145.286,229.423,143.669,229.423,141.701z
			 M105.011,202.431h32.896l-6.748-26.991h-19.399L105.011,202.431z"/>
	</g>
</g>
</svg>
