<?xml version="1.0" encoding="utf-8"?>
<!-- Generator: Adobe Illustrator 16.0.0, SVG Export Plug-In . SVG Version: 6.00 Build 0)  -->
<!DOCTYPE svg PUBLIC "-//W3C//DTD SVG 1.1//EN" "http://www.w3.org/Graphics/SVG/1.1/DTD/svg11.dtd">
<svg version="1.1" id="Layer_1" xmlns="http://www.w3.org/2000/svg" xmlns:xlink="http://www.w3.org/1999/xlink" x="0px" y="0px"
	 width="100px" height="100px" viewBox="0 0 100 100" enable-background="new 0 0 100 100" xml:space="preserve">
<circle fill="#B3B3B3" cx="50" cy="50" r="50"/>
<g>
	<path fill="#FFFFFF" d="M76.594,35.625c0.599,0,1.108,0.21,1.527,0.629c0.419,0.42,0.629,0.929,0.629,1.527v21.563
		c0,0.6-0.21,1.109-0.629,1.527c-0.419,0.42-0.929,0.629-1.527,0.629h-7.188c-0.599,0-1.108-0.209-1.527-0.629
		c-0.419-0.418-0.629-0.928-0.629-1.527v-0.719h-3.953c-1.019,1.379-2.426,2.188-4.223,2.426c-1.019,1.498-2.426,2.457-4.223,2.875
		c-0.659,0.84-1.482,1.469-2.471,1.887c-0.988,0.42-1.991,0.6-3.01,0.539c-1.078,0.6-2.291,0.898-3.639,0.898
		s-2.755-0.254-4.223-0.764c-1.468-0.508-2.65-1.242-3.549-2.201l-5.211-4.762c-0.06,0.539-0.3,1.004-0.719,1.393
		c-0.419,0.391-0.898,0.584-1.438,0.584h-7.188c-0.599,0-1.108-0.209-1.527-0.629c-0.419-0.418-0.629-0.928-0.629-1.527V37.781
		c0-0.599,0.21-1.107,0.629-1.527c0.419-0.419,0.929-0.629,1.527-0.629h7.188c0.539,0,1.019,0.195,1.438,0.584
		c0.419,0.39,0.659,0.854,0.719,1.393l3.055-2.605c1.617-1.497,3.534-2.246,5.75-2.246h2.695c1.677,0,3.234,0.479,4.672,1.438
		c1.317-0.958,2.755-1.438,4.313-1.438h3.863c1.198,0,2.321,0.255,3.369,0.764c1.048,0.51,1.962,1.243,2.74,2.201l2.785,2.785h1.258
		v-0.719c0-0.599,0.21-1.107,0.629-1.527c0.419-0.419,0.929-0.629,1.527-0.629H76.594z M24.125,58.625h5.75V38.5h-5.75V58.625z
		 M28.438,54.313c0-0.418-0.135-0.764-0.404-1.033S27.419,52.875,27,52.875s-0.764,0.135-1.033,0.404s-0.404,0.615-0.404,1.033
		c0,0.42,0.135,0.764,0.404,1.033S26.581,55.75,27,55.75s0.764-0.135,1.033-0.404S28.438,54.732,28.438,54.313z M60.602,57.367
		c0.539-0.479,0.839-1.137,0.898-1.977c0.06-0.838-0.18-1.557-0.719-2.156l-5.75-7.277l-2.785,3.324
		c-0.839,1.02-1.842,1.707-3.01,2.066s-2.351,0.346-3.549-0.045c-1.198-0.389-2.216-1.123-3.055-2.201s-1.258-2.321-1.258-3.729
		s0.449-2.681,1.348-3.818l4.223-5.211c-0.839-0.479-1.737-0.719-2.695-0.719h-2.695c-1.497,0-2.785,0.51-3.863,1.527l-4.402,3.684
		c-0.18,0.18-0.359,0.3-0.539,0.359V55.84c0.239,0.121,0.509,0.301,0.809,0.539l6.379,5.84c0.599,0.6,1.468,1.123,2.605,1.572
		s2.246,0.645,3.324,0.584c1.198-0.059,2.156-0.418,2.875-1.078c0.958,0.301,1.856,0.225,2.695-0.225s1.378-1.063,1.617-1.842
		c0.839,0.061,1.572-0.104,2.201-0.494c0.629-0.389,1.123-0.838,1.482-1.348c0.359-0.508,0.509-0.973,0.449-1.393
		c0.18,0.24,0.629,0.33,1.348,0.27C59.313,58.207,60.003,57.906,60.602,57.367z M56.918,43.621l6.02,7.816
		c1.019,1.139,1.497,2.457,1.438,3.953v0.359h2.875V41.375h-2.426l-3.773-3.863c-1.019-1.258-2.336-1.887-3.953-1.887h-3.863
		c-1.378,0-2.516,0.569-3.414,1.707l-4.852,6.02c-0.479,0.599-0.719,1.272-0.719,2.021s0.21,1.423,0.629,2.021
		c0.719,0.839,1.587,1.272,2.605,1.303s1.887-0.374,2.605-1.213l4.492-5.57c0.239-0.299,0.554-0.479,0.943-0.539
		c0.39-0.06,0.733,0.03,1.033,0.27c0.3,0.24,0.479,0.554,0.539,0.943S57.098,43.321,56.918,43.621z M75.875,58.625V38.5h-5.75
		v20.125H75.875z M71.563,54.313c0,0.42,0.135,0.764,0.404,1.033S72.581,55.75,73,55.75s0.764-0.135,1.033-0.404
		s0.404-0.613,0.404-1.033c0-0.418-0.135-0.764-0.404-1.033S73.419,52.875,73,52.875s-0.764,0.135-1.033,0.404
		S71.563,53.895,71.563,54.313z"/>
</g>
</svg>
