<?xml version="1.0" encoding="utf-8"?>
<!-- Generator: Adobe Illustrator 16.0.0, SVG Export Plug-In . SVG Version: 6.00 Build 0)  -->
<!DOCTYPE svg PUBLIC "-//W3C//DTD SVG 1.1//EN" "http://www.w3.org/Graphics/SVG/1.1/DTD/svg11.dtd">
<svg version="1.1" xmlns="http://www.w3.org/2000/svg" xmlns:xlink="http://www.w3.org/1999/xlink" x="0px" y="0px"
	 width="1446.176px" height="337.959px" viewBox="0 0 1446.176 337.959" enable-background="new 0 0 1446.176 337.959"
	 xml:space="preserve">
<g id="Logo">
	<polygon fill-rule="evenodd" clip-rule="evenodd" fill="#CC66CC" points="64.451,58.742 0,98.192 0,212.435 163.305,112.478 	"/>
	<path fill-rule="evenodd" clip-rule="evenodd" fill="#990099" d="M259.266,53.733h0.002v0.002L259.266,53.733L259.266,53.733z
		 M259.268,164.645V53.735l-95.963,58.74L259.268,164.645z"/>
	<polygon fill-rule="evenodd" clip-rule="evenodd" fill="#660066" points="163.305,112.478 64.451,58.742 160.414,0 259.268,53.733 
			"/>
	<polygon fill-rule="evenodd" clip-rule="evenodd" fill="#66FFCC" points="314.975,279.215 379.424,239.769 379.424,125.521 
		216.121,225.479 	"/>
	<path fill-rule="evenodd" clip-rule="evenodd" fill="#33CC99" d="M120.156,284.226L120.156,284.226v-0.007V284.226L120.156,284.226
		z M120.156,173.316v110.903l95.964-58.733L120.156,173.316z"/>
	<polygon fill-rule="evenodd" clip-rule="evenodd" fill="#336666" points="216.121,225.479 314.975,279.215 219.012,337.959 
		120.156,284.226 	"/>
</g>
<g id="Layer_3">
	<g>
		<path fill="#333333" d="M471.816,228.775V70.214h52.674c12.45,0,23.099,1.602,31.951,4.804c8.85,3.202,15.849,8.402,20.994,15.597
			c5.144,7.197,7.717,16.227,7.717,27.092c0,7.556-0.97,14.267-2.914,20.131c-1.943,5.866-5.146,11.189-9.607,15.974
			c-4.463,4.788-10.739,8.474-18.834,11.064s-17.864,3.885-29.307,3.885c-9.785,0-17.738-0.286-23.853-0.861v60.876H471.816z
			 M521.362,147.606c5.971,0,11.17-0.576,15.597-1.728c4.425-1.15,7.878-2.626,10.362-4.425c2.483-1.798,4.461-4.028,5.937-6.691
			c1.473-2.662,2.445-5.236,2.913-7.717c0.469-2.485,0.703-5.273,0.703-8.367c0-8.707-2.808-15.328-8.419-19.86
			c-5.612-4.533-13.53-6.801-23.746-6.801h-24.07v55.372C501.501,147.535,508.407,147.606,521.362,147.606z"/>
		<path fill="#333333" d="M633.186,231.042c-11.009,0-19.915-3.039-26.715-9.121c-6.799-6.078-10.2-14.841-10.2-26.284
			c0-12.304,4.029-21.426,12.089-27.361c8.057-5.937,20.219-9.696,36.484-11.281c2.228-0.285,4.64-0.574,7.23-0.861
			s5.504-0.578,8.743-0.865c3.237-0.287,5.792-0.541,7.664-0.755v-6.261c0-7.195-1.656-12.431-4.966-15.704
			c-3.31-3.274-8.348-4.911-15.111-4.911c-9.644,0-21.551,2.699-35.728,8.095c-0.072-0.216-1.259-3.49-3.562-9.823
			c-2.303-6.331-3.491-9.569-3.561-9.715c13.959-5.972,29.07-8.958,45.334-8.958c15.975,0,27.595,3.473,34.863,10.415
			c7.269,6.945,10.902,18.188,10.902,33.732v77.391h-20.94c-0.072-0.287-0.863-2.701-2.374-7.23
			c-1.512-4.535-2.267-6.945-2.267-7.234c-5.902,5.758-11.677,9.985-17.325,12.683C648.098,229.694,641.244,231.042,633.186,231.042
			z M640.849,210.966c6.548,0,12.251-1.565,17.108-4.697c4.857-3.13,8.328-6.923,10.417-11.387v-22.884
			c-0.217,0-2.104,0.147-5.667,0.432c-3.563,0.289-5.489,0.433-5.775,0.433c-11.441,1.008-19.824,3.167-25.149,6.477
			c-5.326,3.311-7.986,8.634-7.986,15.975c0,5.038,1.474,8.904,4.425,11.603C631.171,209.615,635.379,210.966,640.849,210.966z"/>
		<path fill="#333333" d="M748.892,281.88l-1.614-22.882h14.352c16.623,0,28.247-2.213,34.869-6.638
			c6.615-4.426,9.926-12.541,9.926-24.342c0-4.818-0.216-10.038-0.646-15.65c-1.874,2.591-3.653,4.732-5.343,6.422
			c-1.69,1.692-3.818,3.364-6.369,5.021c-2.558,1.655-5.615,2.896-9.173,3.723c-3.563,0.827-7.609,1.241-12.143,1.241
			c-15.692,0-28.589-5.648-38.698-16.947c-10.11-11.294-15.165-25.867-15.165-43.714c0-9.499,1.403-18.15,4.21-25.958
			c2.806-7.808,6.619-14.229,11.44-19.268c4.821-5.036,10.377-8.906,16.677-11.604c6.299-2.698,13.009-4.047,20.131-4.047
			c15.903,0,27.741,5.792,35.509,17.377l1.943-14.463h25.259v110.205c0,5.903-0.284,11.208-0.861,15.922
			c-0.575,4.713-1.582,9.246-3.025,13.602c-1.437,4.353-3.33,8.147-5.666,11.386c-2.336,3.237-5.273,6.188-8.793,8.85
			c-3.526,2.662-7.686,4.839-12.471,6.533c-4.787,1.688-10.346,2.984-16.676,3.883c-6.33,0.9-13.458,1.35-21.372,1.35H748.892z
			 M777.284,209.022c19.498,0,29.354-13.061,29.57-39.183v-4.101c-0.14-11.729-2.589-20.795-7.337-27.201
			c-4.749-6.403-11.693-9.641-20.834-9.713c-10.357,0-18.207,3.545-23.531,10.632c-5.324,7.088-7.983,16.64-7.983,28.657
			c0,11.586,2.679,21.301,8.041,29.144C760.571,205.103,767.928,209.022,777.284,209.022z"/>
		<path fill="#333333" d="M916.737,231.042c-19.067,0-33.909-5.486-44.522-16.459c-10.616-10.974-15.922-26.141-15.922-45.498
			c0-18.853,5.001-33.855,15.004-45.009c10.003-11.153,23.639-16.766,40.908-16.838c16.337,0,29.017,5.11,38.05,15.327
			c9.028,10.218,13.544,23.784,13.544,40.692c0,1.225-0.019,3.204-0.053,5.937c-0.038,2.736-0.055,4.749-0.055,6.044H884.79
			c0.285,11.083,3.327,19.665,9.119,25.744c5.793,6.082,13.764,9.12,23.908,9.12c12.952,0,25.401-3.381,37.348-10.147l3.994,20.079
			C947.286,227.373,933.146,231.042,916.737,231.042z M885.328,157.428h51.811c0-9.641-2.194-17.055-6.584-22.234
			c-4.391-5.182-10.468-7.772-18.242-7.772c-7.267,0-13.401,2.518-18.403,7.555C888.908,140.014,886.047,147.498,885.328,157.428z"
			/>
		<path fill="#333333" d="M1009.89,228.775h-18.675V69.135h88.619l-0.757,16.515h-69.188v56.02h65.949v15.866h-65.949V228.775z"/>
		<path fill="#333333" d="M1096.134,189.27v-78.902h18.131v79.119c0,5.18,0.738,9.569,2.213,13.167
			c1.477,3.599,3.6,6.388,6.369,8.366c2.77,1.981,5.899,3.4,9.391,4.264c3.491,0.861,7.503,1.294,12.036,1.294
			c9.354,0,16.64-2.05,21.858-6.151c5.217-4.103,7.825-11.08,7.825-20.94v-79.119h18.135v78.902c0,6.045-0.865,11.478-2.593,16.298
			c-1.727,4.821-4.046,8.835-6.961,12.034c-2.915,3.204-6.423,5.849-10.525,7.935c-4.103,2.09-8.438,3.596-13.005,4.533
			c-4.572,0.933-9.48,1.405-14.734,1.405c-5.179,0-10.077-0.473-14.68-1.405c-4.604-0.938-8.979-2.462-13.116-4.587
			c-4.137-2.123-7.698-4.785-10.683-7.987c-2.988-3.202-5.343-7.213-7.072-12.036C1096.995,200.64,1096.134,195.244,1096.134,189.27
			z"/>
		<path fill="#333333" d="M1218.965,228.775V110.368h15.111l2.268,16.946c4.676-5.829,10.522-10.523,17.54-14.086
			c7.015-3.562,14.588-5.342,22.721-5.342c13.67,0,23.78,3.832,30.33,11.495c6.549,7.666,9.821,19.448,9.821,35.349v74.047h-18.022
			c0-47.493-0.039-72.929-0.108-76.312c-0.29-10.075-2.324-17.449-6.099-22.127c-3.78-4.677-10.095-7.016-18.945-7.016
			c-9.281,0-17.017,2.231-23.205,6.692c-6.191,4.462-10.22,10.254-12.091,17.376c-0.718,4.823-1.08,10.363-1.08,16.623v64.764
			H1218.965z"/>
		<path fill="#333333" d="M1428.472,211.613c-3.883,5.974-9.064,10.722-15.542,14.247c-6.476,3.526-13.707,5.289-21.694,5.289
			c-15.618,0-27.848-5.558-36.698-16.677c-8.854-11.117-13.279-26.245-13.279-45.388c0-18.276,4.498-33.045,13.494-44.309
			c8.993-11.26,21.046-16.892,36.157-16.892c7.844,0,15.238,1.709,22.183,5.126c6.945,3.42,12.143,8.006,15.6,13.762l-0.327-10.253
			V64.385l17.812-1.079v165.469h-15.326L1428.472,211.613z M1392.961,215.716c11.872,0,20.707-3.815,26.5-11.443
			c5.792-7.625,8.688-18.528,8.688-32.705c0-15.975-2.788-28.01-8.365-36.105s-14.59-12.142-27.039-12.142
			c-5.542,0-10.433,1.188-14.677,3.561c-4.248,2.376-7.667,5.687-10.256,9.931c-2.589,4.246-4.552,9.121-5.885,14.625
			c-1.329,5.504-1.994,11.534-1.994,18.081c0,9.211,1.133,17.199,3.399,23.961c2.267,6.766,5.917,12.162,10.955,16.19
			C1379.324,213.701,1385.55,215.716,1392.961,215.716z"/>
	</g>
	<g>
		<path fill="#33CC99" d="M1114.265,242.147c5.703-1.14,17.252-1.996,28.087-1.996c13.261,0,21.387,1.285,28.373,5.419
			c6.701,3.563,11.549,10.122,11.549,18.819c0,8.555-4.99,16.539-15.826,20.531v0.285c10.979,2.993,19.104,11.264,19.104,23.668
			c0,8.696-3.991,15.54-9.979,20.388c-6.987,5.561-18.677,8.697-37.782,8.697c-10.693,0-18.678-0.714-23.525-1.426V242.147z
			 M1135.793,278.932h7.129c11.406,0,17.537-4.704,17.537-11.833c0-7.271-5.562-11.12-15.398-11.12
			c-4.705,0-7.414,0.285-9.268,0.569V278.932z M1135.793,321.563c2.141,0.285,4.706,0.285,8.413,0.285
			c9.837,0,18.534-3.707,18.534-13.831c0-9.693-8.697-13.544-19.533-13.544h-7.414V321.563z"/>
		<path fill="#33CC99" d="M1264.681,296.327h-35.358v22.812h39.493v17.821h-61.308v-96.097h59.312v17.824h-37.497v19.96h35.358
			V296.327z"/>
		<path fill="#33CC99" d="M1310.019,259.114h-25.808v-18.251h73.854v18.251h-26.233v77.846h-21.813V259.114z"/>
		<path fill="#33CC99" d="M1388.863,312.295l-6.845,24.665h-22.526l29.371-96.097h28.515l29.798,96.097h-23.382l-7.413-24.665
			H1388.863z M1413.243,296.042l-5.987-20.39c-1.711-5.702-3.423-12.832-4.849-18.534h-0.285
			c-1.426,5.702-2.851,12.975-4.419,18.534l-5.704,20.39H1413.243z"/>
	</g>
</g>
</svg>
