<?xml version="1.0" encoding="utf-8"?>
<!-- Generator: Adobe Illustrator 16.0.0, SVG Export Plug-In . SVG Version: 6.00 Build 0)  -->
<!DOCTYPE svg PUBLIC "-//W3C//DTD SVG 1.1//EN" "http://www.w3.org/Graphics/SVG/1.1/DTD/svg11.dtd">
<svg version="1.1" id="Logo" xmlns="http://www.w3.org/2000/svg" xmlns:xlink="http://www.w3.org/1999/xlink" x="0px" y="0px"
	 width="78.955px" height="70.326px" viewBox="0 0 78.955 70.326" enable-background="new 0 0 78.955 70.326" xml:space="preserve">
<polygon fill-rule="evenodd" clip-rule="evenodd" fill="#CC66CC" points="13.412,12.224 0,20.433 0,44.206 33.982,23.406 "/>
<path fill-rule="evenodd" clip-rule="evenodd" fill="#990099" d="M53.951,11.182L53.951,11.182L53.951,11.182L53.951,11.182
	L53.951,11.182z M53.951,34.261V11.182L33.982,23.405L53.951,34.261z"/>
<polygon fill-rule="evenodd" clip-rule="evenodd" fill="#660066" points="33.982,23.406 13.412,12.224 33.38,0 53.951,11.182 "/>
<polygon fill-rule="evenodd" clip-rule="evenodd" fill="#66FFCC" points="65.543,58.103 78.955,49.894 78.955,26.12 44.973,46.92 
	"/>
<path fill-rule="evenodd" clip-rule="evenodd" fill="#33CC99" d="M25.003,59.145L25.003,59.145L25.003,59.145L25.003,59.145
	L25.003,59.145z M25.003,36.065v23.078l19.969-12.223L25.003,36.065z"/>
<polygon fill-rule="evenodd" clip-rule="evenodd" fill="#336666" points="44.973,46.92 65.543,58.103 45.574,70.326 25.003,59.145 
	"/>
</svg>
