<?xml version="1.0" encoding="utf-8"?>
<!-- Generator: Adobe Illustrator 16.0.0, SVG Export Plug-In . SVG Version: 6.00 Build 0)  -->
<!DOCTYPE svg PUBLIC "-//W3C//DTD SVG 1.1//EN" "http://www.w3.org/Graphics/SVG/1.1/DTD/svg11.dtd">
<svg version="1.1" xmlns="http://www.w3.org/2000/svg" xmlns:xlink="http://www.w3.org/1999/xlink" x="0px" y="0px"
	 width="248.854px" height="58.155px" viewBox="0 0 248.854 58.155" enable-background="new 0 0 248.854 58.155"
	 xml:space="preserve">
<g id="Logo">
	<polygon fill-rule="evenodd" clip-rule="evenodd" fill="#CC66CC" points="11.091,10.108 0,16.896 0,36.555 28.101,19.355 	"/>
	<path fill-rule="evenodd" clip-rule="evenodd" fill="#990099" d="M44.614,9.246L44.614,9.246L44.614,9.246L44.614,9.246
		L44.614,9.246z M44.614,28.332V9.247L28.101,19.354L44.614,28.332z"/>
	<polygon fill-rule="evenodd" clip-rule="evenodd" fill="#660066" points="28.101,19.355 11.091,10.108 27.604,0 44.614,9.246 	"/>
	<polygon fill-rule="evenodd" clip-rule="evenodd" fill="#66FFCC" points="54.2,48.047 65.291,41.259 65.291,21.6 37.189,38.8 	"/>
	<path fill-rule="evenodd" clip-rule="evenodd" fill="#33CC99" d="M20.676,48.909L20.676,48.909v-0.001V48.909L20.676,48.909z
		 M20.676,29.824v19.084l16.513-10.106L20.676,29.824z"/>
	<polygon fill-rule="evenodd" clip-rule="evenodd" fill="#336666" points="37.189,38.8 54.2,48.047 37.687,58.155 20.676,48.909 	
		"/>
</g>
<g id="Layer_3">
	<g>
		<path fill="#333333" d="M81.189,39.367V12.082h9.064c2.142,0,3.975,0.276,5.498,0.827c1.523,0.551,2.728,1.446,3.613,2.684
			c0.885,1.239,1.328,2.792,1.328,4.663c0,1.3-0.167,2.455-0.501,3.464c-0.334,1.009-0.885,1.926-1.653,2.749
			c-0.768,0.824-1.848,1.458-3.241,1.904c-1.393,0.446-3.074,0.668-5.042,0.668c-1.684,0-3.053-0.049-4.105-0.148v10.476H81.189z
			 M89.715,25.399c1.027,0,1.922-0.099,2.684-0.297s1.356-0.452,1.783-0.762c0.427-0.309,0.768-0.693,1.021-1.151
			c0.253-0.458,0.421-0.901,0.501-1.328c0.081-0.428,0.121-0.907,0.121-1.439c0-1.498-0.483-2.638-1.448-3.417
			c-0.966-0.78-2.329-1.17-4.086-1.17h-4.142v9.528C86.297,25.388,87.486,25.399,89.715,25.399z"/>
		<path fill="#333333" d="M108.957,39.757c-1.894,0-3.427-0.522-4.597-1.569c-1.17-1.046-1.755-2.554-1.755-4.523
			c0-2.117,0.693-3.687,2.081-4.708c1.386-1.021,3.479-1.668,6.277-1.941c0.384-0.049,0.799-0.099,1.245-0.148
			s0.947-0.1,1.504-0.149c0.557-0.049,0.997-0.093,1.319-0.13v-1.078c0-1.238-0.285-2.139-0.854-2.702s-1.437-0.845-2.6-0.845
			c-1.66,0-3.708,0.464-6.148,1.393c-0.013-0.037-0.217-0.6-0.613-1.69c-0.396-1.089-0.601-1.647-0.612-1.672
			c2.402-1.028,5.002-1.542,7.801-1.542c2.749,0,4.748,0.598,5.999,1.792s1.876,3.13,1.876,5.804v13.317h-3.604
			c-0.012-0.049-0.148-0.465-0.408-1.244c-0.26-0.78-0.39-1.195-0.39-1.245c-1.016,0.991-2.009,1.718-2.981,2.183
			C111.523,39.525,110.344,39.757,108.957,39.757z M110.275,36.303c1.127,0,2.108-0.27,2.944-0.809
			c0.836-0.538,1.433-1.191,1.792-1.959v-3.938c-0.037,0-0.362,0.025-0.975,0.074c-0.613,0.05-0.945,0.075-0.994,0.075
			c-1.969,0.173-3.411,0.545-4.327,1.114c-0.917,0.57-1.375,1.486-1.375,2.749c0,0.867,0.254,1.532,0.761,1.997
			C108.61,36.07,109.335,36.303,110.275,36.303z"/>
		<path fill="#333333" d="M128.868,48.505l-0.278-3.938h2.469c2.86,0,4.861-0.381,6-1.142c1.138-0.762,1.708-2.158,1.708-4.189
			c0-0.829-0.037-1.727-0.111-2.693c-0.323,0.445-0.629,0.814-0.919,1.105c-0.291,0.291-0.657,0.579-1.096,0.864
			c-0.44,0.285-0.966,0.499-1.579,0.641c-0.613,0.143-1.309,0.214-2.089,0.214c-2.7,0-4.919-0.972-6.659-2.916
			s-2.609-4.452-2.609-7.522c0-1.634,0.241-3.124,0.725-4.467c0.482-1.344,1.139-2.449,1.969-3.315
			c0.83-0.867,1.785-1.533,2.87-1.997c1.083-0.464,2.238-0.696,3.464-0.696c2.736,0,4.773,0.997,6.11,2.99l0.334-2.489h4.347v18.964
			c0,1.016-0.049,1.929-0.148,2.74s-0.272,1.591-0.521,2.34c-0.247,0.749-0.573,1.402-0.975,1.959
			c-0.401,0.558-0.907,1.065-1.513,1.523c-0.607,0.458-1.323,0.832-2.146,1.124c-0.824,0.291-1.78,0.513-2.87,0.668
			c-1.089,0.155-2.316,0.232-3.677,0.232H128.868z M133.753,35.968c3.355,0,5.051-2.248,5.088-6.743V28.52
			c-0.024-2.018-0.446-3.579-1.263-4.681s-2.012-1.659-3.585-1.671c-1.782,0-3.133,0.61-4.049,1.83s-1.374,2.863-1.374,4.931
			c0,1.994,0.461,3.665,1.384,5.015C130.877,35.294,132.144,35.968,133.753,35.968z"/>
		<path fill="#333333" d="M157.75,39.757c-3.281,0-5.835-0.944-7.661-2.832c-1.827-1.888-2.74-4.498-2.74-7.829
			c0-3.244,0.861-5.826,2.582-7.745c1.722-1.919,4.068-2.885,7.04-2.897c2.811,0,4.993,0.879,6.547,2.638
			c1.554,1.758,2.331,4.093,2.331,7.002c0,0.21-0.004,0.551-0.009,1.021c-0.007,0.471-0.01,0.817-0.01,1.04h-13.577
			c0.049,1.907,0.572,3.384,1.569,4.43c0.997,1.046,2.369,1.569,4.114,1.569c2.229,0,4.371-0.582,6.427-1.746l0.687,3.455
			C163.007,39.126,160.574,39.757,157.75,39.757z M152.345,27.09h8.916c0-1.659-0.377-2.935-1.133-3.826
			c-0.756-0.892-1.802-1.338-3.139-1.338c-1.25,0-2.306,0.433-3.167,1.3C152.961,24.093,152.469,25.381,152.345,27.09z"/>
		<path fill="#333333" d="M173.779,39.367h-3.213V11.896h15.25l-0.13,2.842h-11.906v9.64h11.349v2.73h-11.349V39.367z"/>
		<path fill="#333333" d="M188.62,32.569V18.992h3.12v13.615c0,0.891,0.127,1.646,0.381,2.266c0.254,0.62,0.619,1.099,1.096,1.439
			c0.477,0.341,1.015,0.585,1.616,0.734c0.601,0.148,1.291,0.223,2.071,0.223c1.609,0,2.863-0.353,3.761-1.059
			c0.897-0.706,1.346-1.906,1.346-3.603V18.992h3.121v13.578c0,1.04-0.149,1.975-0.446,2.805c-0.297,0.829-0.696,1.52-1.198,2.071
			c-0.501,0.551-1.105,1.006-1.811,1.365s-1.452,0.619-2.238,0.78c-0.787,0.161-1.631,0.242-2.535,0.242
			c-0.892,0-1.734-0.082-2.526-0.242c-0.792-0.161-1.545-0.423-2.257-0.789s-1.325-0.824-1.838-1.375
			c-0.514-0.551-0.919-1.241-1.217-2.071C188.769,34.526,188.62,33.597,188.62,32.569z"/>
		<path fill="#333333" d="M209.757,39.367V18.992h2.6l0.39,2.916c0.805-1.003,1.811-1.811,3.019-2.424
			c1.207-0.613,2.51-0.919,3.91-0.919c2.352,0,4.092,0.66,5.219,1.978c1.126,1.319,1.69,3.347,1.69,6.083v12.742h-3.102
			c0-8.173-0.007-12.549-0.019-13.131c-0.05-1.734-0.4-3.003-1.049-3.808c-0.65-0.805-1.737-1.207-3.26-1.207
			c-1.597,0-2.928,0.384-3.993,1.151c-1.065,0.768-1.759,1.765-2.081,2.99c-0.123,0.83-0.186,1.783-0.186,2.86v11.145H209.757z"/>
		<path fill="#333333" d="M245.808,36.414c-0.668,1.028-1.56,1.845-2.674,2.452c-1.114,0.606-2.359,0.91-3.733,0.91
			c-2.687,0-4.792-0.957-6.315-2.87c-1.523-1.913-2.285-4.516-2.285-7.81c0-3.145,0.774-5.687,2.322-7.625
			c1.547-1.938,3.622-2.907,6.222-2.907c1.35,0,2.622,0.294,3.817,0.882c1.195,0.588,2.089,1.377,2.685,2.368l-0.057-1.764v-8.971
			l3.065-0.186v28.474h-2.637L245.808,36.414z M239.698,37.12c2.042,0,3.563-0.657,4.56-1.969c0.997-1.312,1.495-3.188,1.495-5.628
			c0-2.749-0.48-4.82-1.439-6.213c-0.96-1.393-2.511-2.089-4.653-2.089c-0.954,0-1.795,0.204-2.526,0.613
			c-0.731,0.409-1.319,0.979-1.765,1.709c-0.446,0.73-0.784,1.569-1.013,2.516c-0.229,0.947-0.343,1.985-0.343,3.111
			c0,1.585,0.194,2.96,0.584,4.124c0.39,1.164,1.018,2.093,1.885,2.786C237.351,36.773,238.422,37.12,239.698,37.12z"/>
	</g>
</g>
</svg>
