<?xml version="1.0" encoding="utf-8"?>
<!-- Generator: Adobe Illustrator 16.0.0, SVG Export Plug-In . SVG Version: 6.00 Build 0)  -->
<!DOCTYPE svg PUBLIC "-//W3C//DTD SVG 1.1//EN" "http://www.w3.org/Graphics/SVG/1.1/DTD/svg11.dtd">
<svg version="1.1" id="Layer_1" xmlns="http://www.w3.org/2000/svg" xmlns:xlink="http://www.w3.org/1999/xlink" x="0px" y="0px"
	 width="617px" height="400px" viewBox="0 0 617 400" enable-background="new 0 0 617 400" xml:space="preserve">
<rect x="-0.5" fill="#B3B3B3" width="617" height="400"/>
<g>
	<path fill="#FFFFFF" d="M331,179c1.25,0,2.313,0.438,3.188,1.313s1.313,1.938,1.313,3.188v27c0,1.25-0.438,2.313-1.313,3.188
		S332.25,215,331,215h-1.5v1.5c0,1.25-0.438,2.313-1.313,3.188S326.25,221,325,221h-39c-1.25,0-2.313-0.438-3.188-1.313
		s-1.313-1.938-1.313-3.188v-27c0-1.25,0.438-2.313,1.313-3.188S284.75,185,286,185h1.5v-1.5c0-1.25,0.438-2.313,1.313-3.188
		S290.75,179,292,179H331z M326.5,216.5V215H292c-1.25,0-2.313-0.438-3.188-1.313s-1.313-1.938-1.313-3.188V188H286
		c-0.438,0-0.797,0.141-1.078,0.422s-0.422,0.641-0.422,1.078v27c0,0.438,0.141,0.797,0.422,1.078S285.563,218,286,218h39
		c0.438,0,0.797-0.141,1.078-0.422S326.5,216.938,326.5,216.5z M332.5,210.5v-27c0-0.438-0.141-0.797-0.422-1.078
		S331.438,182,331,182h-39c-0.438,0-0.797,0.141-1.078,0.422s-0.422,0.641-0.422,1.078v27c0,0.438,0.141,0.797,0.422,1.078
		S291.563,212,292,212h39c0.438,0,0.797-0.141,1.078-0.422S332.5,210.938,332.5,210.5z M298,194.75
		c-1.438,0-2.672-0.516-3.703-1.547s-1.547-2.266-1.547-3.703s0.516-2.672,1.547-3.703s2.266-1.547,3.703-1.547
		s2.672,0.516,3.703,1.547s1.547,2.266,1.547,3.703s-0.516,2.672-1.547,3.703S299.438,194.75,298,194.75z M320.594,189.406
		l8.25,8.25c0.438,0.438,0.656,0.969,0.656,1.594v8.625c0,0.313-0.109,0.578-0.328,0.797S328.688,209,328.375,209h-33.75
		c-0.313,0-0.578-0.109-0.797-0.328s-0.328-0.484-0.328-0.797v-2.625c0-0.625,0.219-1.156,0.656-1.594l8.25-8.25
		c0.438-0.438,0.969-0.656,1.594-0.656s1.156,0.219,1.594,0.656l2.906,2.906l8.906-8.906c0.438-0.438,0.969-0.656,1.594-0.656
		S320.156,188.969,320.594,189.406z M298,187.25c-0.625,0-1.156,0.219-1.594,0.656s-0.656,0.969-0.656,1.594
		s0.219,1.156,0.656,1.594s0.969,0.656,1.594,0.656s1.156-0.219,1.594-0.656s0.656-0.969,0.656-1.594s-0.219-1.156-0.656-1.594
		S298.625,187.25,298,187.25z M326.5,206v-6.469l-7.5-7.5l-10.5,10.5l-4.5-4.5l-7.5,7.5V206H326.5z"/>
</g>
</svg>
