<?xml version="1.0" standalone="no"?>
<!DOCTYPE svg PUBLIC "-//W3C//DTD SVG 20010904//EN"
 "http://www.w3.org/TR/2001/REC-SVG-20010904/DTD/svg10.dtd">
<svg version="1.0" xmlns="http://www.w3.org/2000/svg"
 width="977.000000pt" height="977.000000pt" viewBox="0 0 977.000000 977.000000"
 preserveAspectRatio="xMidYMid meet">
<metadata>
Created by potrace 1.11, written by Peter Selinger 2001-2013
</metadata>
<g transform="translate(0.000000,977.000000) scale(0.100000,-0.100000)"
fill="#000000" stroke="none">
<path d="M4065 9199 c-33 -21 -66 -42 -74 -46 -24 -11 -115 -67 -148 -90 -17
-13 -33 -23 -36 -23 -10 0 -172 -103 -179 -114 -4 -6 -8 -7 -8 -2 0 5 -8 2
-17 -6 -10 -9 -28 -19 -40 -22 -13 -4 -23 -11 -23 -15 0 -5 -13 -14 -30 -21
-16 -7 -30 -16 -30 -21 0 -5 -3 -8 -7 -7 -5 1 -19 -5 -33 -13 -136 -87 -171
-109 -174 -109 -5 0 -178 -107 -192 -119 -6 -5 -20 -12 -32 -15 -12 -4 -22
-12 -22 -17 0 -5 -4 -9 -9 -9 -8 0 -241 -139 -251 -150 -3 -3 -16 -11 -30 -18
-14 -7 -45 -26 -70 -42 -25 -16 -56 -35 -70 -42 -14 -7 -27 -15 -30 -19 -3 -3
-12 -9 -20 -13 -20 -9 -49 -26 -85 -51 -50 -33 -68 -44 -112 -67 -24 -12 -43
-26 -43 -30 0 -4 -7 -8 -15 -8 -8 0 -15 -4 -15 -10 0 -5 -4 -10 -10 -10 -9 0
-208 -118 -220 -130 -7 -7 -43 -29 -60 -37 -8 -3 -37 -21 -65 -38 -104 -66
-176 -111 -215 -131 -22 -11 -37 -24 -33 -27 3 -4 1 -7 -6 -7 -7 0 -73 -37
-147 -82 -74 -46 -142 -88 -152 -93 -115 -68 -168 -101 -170 -107 -2 -5 -10
-8 -18 -8 -8 0 -14 -5 -14 -11 0 -5 -4 -8 -9 -4 -5 3 -12 1 -15 -4 -5 -7 -79
-54 -168 -106 -94 -54 -295 -181 -300 -189 -4 -6 -8 -7 -8 -3 0 4 -26 -9 -58
-30 -82 -54 -95 -62 -112 -70 -8 -4 -19 -11 -25 -15 -22 -19 -206 -128 -215
-128 -6 0 -10 -4 -10 -10 0 -5 -7 -10 -15 -10 -8 0 -15 -4 -15 -9 0 -5 -6 -11
-13 -13 -6 -2 -54 -28 -104 -58 l-93 -55 0 -1467 c0 -814 4 -1468 9 -1468 4 0
25 11 45 25 20 14 39 25 42 25 3 0 32 18 64 40 32 22 62 40 65 40 3 0 37 20
75 45 38 25 72 45 75 45 3 0 32 17 63 37 66 44 70 46 177 110 90 53 144 88
162 103 7 5 15 10 18 10 3 0 31 16 61 35 30 19 59 35 64 35 6 0 10 5 10 10 0
6 7 10 15 10 8 0 15 5 15 10 0 6 5 10 11 10 7 0 36 16 65 35 29 19 57 35 63
35 6 0 11 4 11 9 0 5 10 13 22 17 12 3 28 13 36 20 7 8 20 14 28 14 8 0 14 4
14 8 0 5 17 17 37 28 58 31 87 48 93 54 3 3 59 39 125 79 66 40 127 77 135 82
8 5 96 58 195 118 99 61 185 115 192 120 7 6 14 11 17 11 3 0 48 27 101 60 53
33 98 60 100 60 2 0 23 13 47 28 24 16 59 38 78 48 19 10 37 22 40 25 3 4 21
16 40 27 61 34 354 214 382 233 14 11 31 19 37 19 6 0 11 5 11 10 0 6 6 10 13
10 11 0 85 46 114 70 7 5 15 10 18 10 3 0 31 16 61 35 30 19 58 35 63 35 5 0
14 6 20 14 7 8 26 22 44 31 18 9 64 36 102 60 39 25 88 54 110 66 22 12 42 25
45 28 3 4 91 58 195 121 105 63 192 118 193 122 2 4 8 8 13 8 6 0 53 27 106
60 52 33 97 60 99 60 4 0 95 57 145 91 15 10 30 14 35 9 5 -4 47 -28 94 -53
47 -24 108 -58 137 -75 28 -17 53 -28 56 -26 2 2 10 -2 17 -11 7 -8 16 -15 20
-15 4 0 40 -18 81 -41 41 -22 117 -64 169 -92 52 -28 97 -53 100 -56 3 -3 11
-7 18 -9 7 -1 30 -13 50 -25 20 -13 71 -41 112 -62 41 -22 77 -42 80 -45 3 -3
37 -21 75 -40 39 -19 72 -38 75 -41 3 -3 30 -18 60 -33 30 -15 80 -41 110 -58
140 -78 178 -98 220 -119 25 -13 47 -25 50 -28 3 -3 23 -15 45 -26 22 -10 52
-28 68 -38 15 -10 27 -15 27 -10 0 4 4 4 8 -2 4 -5 23 -18 42 -29 19 -10 62
-33 95 -51 33 -17 105 -56 160 -85 55 -30 102 -56 105 -59 3 -3 48 -28 100
-55 52 -27 111 -58 130 -69 19 -11 62 -35 95 -53 l61 -34 -1 1423 c0 782 -4
1428 -8 1434 -4 7 -25 20 -45 30 -20 9 -57 29 -82 44 -25 14 -91 50 -145 79
-135 72 -168 90 -182 102 -7 6 -13 7 -13 2 0 -5 -4 -4 -8 1 -4 6 -22 18 -40
27 -18 10 -65 35 -105 57 -39 21 -97 52 -127 69 -30 16 -91 49 -135 72 -44 24
-81 47 -83 52 -2 4 -10 8 -17 8 -8 0 -37 14 -65 30 -28 17 -52 30 -54 30 -2 0
-47 25 -100 55 -53 30 -96 51 -96 47 0 -4 -4 -2 -8 3 -8 11 -12 13 -129 77
-43 23 -100 54 -128 70 -27 15 -57 31 -65 35 -8 3 -60 31 -115 61 -55 30 -122
67 -150 82 -132 71 -219 118 -352 191 -80 43 -149 79 -154 79 -4 0 -9 3 -11 8
-2 5 -106 61 -128 69 -3 1 -32 -16 -65 -38z"/>
<path d="M9640 5930 c-69 -44 -131 -79 -137 -80 -7 0 -13 -4 -13 -9 0 -5 -15
-16 -32 -25 -18 -9 -58 -33 -88 -52 -85 -53 -208 -127 -238 -143 -15 -8 -29
-17 -32 -20 -6 -7 -20 -16 -100 -63 -30 -17 -56 -35 -58 -40 -2 -4 -8 -8 -12
-8 -5 0 -52 -27 -105 -60 -53 -33 -100 -60 -106 -60 -5 0 -9 -4 -9 -9 0 -5
-13 -13 -28 -19 -16 -5 -35 -16 -43 -23 -8 -8 -25 -20 -39 -27 -14 -7 -37 -20
-52 -30 -15 -9 -78 -48 -140 -86 -62 -38 -116 -74 -120 -80 -4 -6 -8 -8 -8 -3
0 4 -24 -8 -52 -26 -79 -51 -111 -70 -133 -83 -35 -20 -480 -292 -491 -301
-18 -14 -48 -33 -64 -40 -8 -3 -37 -21 -65 -38 -27 -17 -104 -65 -170 -105
-66 -40 -155 -95 -198 -121 -43 -27 -82 -49 -87 -49 -6 0 -10 -4 -10 -10 0 -5
-7 -10 -15 -10 -8 0 -15 -5 -15 -10 0 -6 -3 -9 -7 -8 -8 2 -71 -35 -125 -73
-15 -10 -32 -19 -38 -19 -5 0 -10 -3 -10 -8 0 -4 -12 -13 -27 -19 -16 -7 -52
-28 -81 -48 -30 -19 -58 -35 -63 -35 -5 0 -9 -4 -9 -10 0 -5 -7 -10 -16 -10
-8 0 -21 -6 -28 -12 -7 -7 -101 -67 -210 -133 -108 -66 -211 -129 -229 -140
-18 -11 -55 -33 -83 -49 -44 -26 -144 -89 -199 -124 -11 -6 -27 -15 -35 -19
-8 -4 -21 -13 -28 -20 -7 -7 -20 -13 -28 -13 -8 0 -14 -4 -14 -8 0 -4 -25 -21
-55 -37 -30 -17 -55 -33 -55 -37 0 -5 -6 -8 -12 -8 -7 0 -24 -9 -38 -20 -15
-12 -29 -15 -36 -10 -6 5 -39 25 -75 43 -35 19 -100 53 -144 77 -44 24 -102
56 -130 71 -27 15 -66 36 -85 46 -54 29 -188 102 -260 143 -36 20 -85 46 -110
59 -25 12 -58 30 -75 40 -16 10 -70 39 -120 66 -49 26 -108 58 -130 70 -46 26
-131 72 -260 141 -49 26 -92 50 -95 53 -3 3 -25 16 -50 28 -25 12 -81 42 -125
66 -44 24 -116 63 -160 87 -44 24 -140 77 -214 117 -74 40 -138 73 -142 73 -5
0 -9 5 -9 12 0 6 -3 8 -7 5 -3 -4 -11 -3 -17 2 -12 9 -83 48 -186 103 l-66 35
0 -1427 0 -1428 76 -39 c41 -22 93 -50 115 -63 22 -12 58 -32 80 -43 22 -12
48 -28 58 -36 9 -8 17 -11 17 -8 0 4 21 -7 47 -23 26 -17 52 -30 59 -30 7 0
14 -3 16 -7 2 -5 21 -17 43 -28 22 -11 91 -49 155 -83 63 -35 153 -84 200
-109 138 -74 174 -95 188 -105 6 -6 12 -7 12 -3 0 5 8 1 18 -7 9 -8 51 -33 92
-54 41 -21 78 -43 82 -49 4 -5 8 -6 8 -2 0 5 12 0 27 -11 16 -10 66 -39 113
-64 150 -80 243 -130 322 -175 43 -23 79 -43 81 -43 2 0 52 -27 111 -60 59
-33 112 -60 116 -60 5 0 10 -3 12 -7 2 -5 32 -23 68 -41 36 -19 106 -56 155
-83 50 -27 101 -55 115 -61 14 -7 27 -15 30 -18 3 -3 32 -19 65 -36 64 -34 70
-33 130 6 17 11 37 23 45 27 8 3 17 10 20 13 3 4 23 17 45 29 22 12 60 35 85
51 25 16 52 33 60 37 8 4 57 33 108 65 51 32 97 58 102 58 4 0 10 4 12 8 2 5
28 23 58 40 62 37 177 107 200 122 8 6 30 18 48 27 17 9 32 20 32 25 0 4 6 8
14 8 7 0 19 7 26 15 7 8 16 13 20 10 5 -3 10 -2 12 3 1 4 25 21 52 37 28 17
66 40 85 52 20 13 51 30 69 40 17 9 32 20 32 25 0 4 5 8 10 8 6 0 29 12 53 27
23 15 51 32 62 39 18 9 243 147 395 241 223 138 313 193 317 193 2 0 30 17 61
38 31 22 62 41 67 43 16 6 404 244 527 322 32 20 60 37 62 37 3 0 55 32 116
70 61 39 115 70 120 70 6 0 10 3 10 8 0 4 9 12 20 17 29 14 184 108 190 114 3
3 16 12 29 19 13 8 40 23 60 34 20 11 47 29 60 39 13 11 30 19 37 19 8 0 14 5
14 10 0 6 4 10 10 10 9 0 123 69 147 90 7 5 15 10 19 10 4 0 30 15 58 33 28
19 67 42 86 53 19 10 37 21 40 24 5 6 276 171 335 205 l35 20 0 1473 c0 809
-1 1472 -2 1471 -2 0 -59 -36 -128 -79z"/>
</g>
</svg>
