<?xml version="1.0" encoding="utf-8"?>
<!-- Generator: Adobe Illustrator 16.0.0, SVG Export Plug-In . SVG Version: 6.00 Build 0)  -->
<!DOCTYPE svg PUBLIC "-//W3C//DTD SVG 1.1//EN" "http://www.w3.org/Graphics/SVG/1.1/DTD/svg11.dtd">
<svg version="1.1" id="Layer_1" xmlns="http://www.w3.org/2000/svg" xmlns:xlink="http://www.w3.org/1999/xlink" x="0px" y="0px"
	 width="100px" height="100px" viewBox="0 0 100 100" enable-background="new 0 0 100 100" xml:space="preserve">
<circle fill="#B3B3B3" cx="50" cy="50" r="50"/>
<g enable-background="new    ">
	<path fill="#FFFFFF" d="M61.344,55.32c2.5,0,4.75,0.594,6.75,1.781c1.813,1.063,3.25,2.531,4.313,4.406s1.594,3.875,1.594,6v2.344
		c0,1.375-0.484,2.547-1.453,3.516s-2.141,1.453-3.516,1.453H30.969c-1.375,0-2.547-0.484-3.516-1.453S26,71.227,26,69.852v-2.344
		c0-2.125,0.531-4.125,1.594-6s2.531-3.344,4.406-4.406c1.938-1.188,4.156-1.781,6.656-1.781c-1.625-1.563-2.891-3.391-3.797-5.484
		S33.5,45.57,33.5,43.32c0-3,0.734-5.766,2.203-8.297s3.469-4.531,6-6S47,26.82,50,26.82s5.766,0.734,8.297,2.203s4.531,3.469,6,6
		S66.5,40.32,66.5,43.32c0,2.25-0.453,4.422-1.359,6.516S62.969,53.758,61.344,55.32z M71,69.852v-2.344
		c0-2.563-0.891-4.734-2.672-6.516s-3.953-2.672-6.516-2.672h-4.969c-2.188,1-4.469,1.5-6.844,1.5s-4.656-0.5-6.844-1.5h-4.969
		c-2.563,0-4.734,0.891-6.516,2.672S29,64.945,29,67.508v2.344c0,0.563,0.188,1.031,0.563,1.406s0.844,0.563,1.406,0.563h38.063
		c0.563,0,1.031-0.188,1.406-0.563S71,70.414,71,69.852z M36.5,43.32c0,2.438,0.609,4.688,1.828,6.75s2.859,3.703,4.922,4.922
		S47.563,56.82,50,56.82s4.688-0.609,6.75-1.828s3.703-2.859,4.922-4.922s1.828-4.313,1.828-6.75s-0.609-4.688-1.828-6.75
		s-2.859-3.703-4.922-4.922S52.438,29.82,50,29.82s-4.688,0.609-6.75,1.828s-3.703,2.859-4.922,4.922S36.5,40.883,36.5,43.32z"/>
</g>
</svg>
