<?xml version="1.0" encoding="utf-8"?>
<!-- Generator: Adobe Illustrator 16.0.0, SVG Export Plug-In . SVG Version: 6.00 Build 0)  -->
<!DOCTYPE svg PUBLIC "-//W3C//DTD SVG 1.1//EN" "http://www.w3.org/Graphics/SVG/1.1/DTD/svg11.dtd">
<svg version="1.1" id="Layer_1" xmlns="http://www.w3.org/2000/svg" xmlns:xlink="http://www.w3.org/1999/xlink" x="0px" y="0px"
	 width="297.288px" height="256.413px" viewBox="0 0 297.288 256.413" enable-background="new 0 0 297.288 256.413"
	 xml:space="preserve">
<g>
	<path fill="#1DA1F2" d="M267.095,67.935c0,27.871-6.774,54.774-20.322,80.709c-13.935,27.483-33.484,49.354-58.645,65.612
		c-27.483,18.193-59.032,27.289-94.645,27.289c-34.064,0-65.225-9.096-93.483-27.289c4.259,0.387,9.097,0.58,14.516,0.58
		c28.257,0,53.613-8.709,76.064-26.129c-13.549,0-25.452-3.967-35.709-11.902s-17.323-17.902-21.193-29.903
		c3.871,0.387,7.548,0.58,11.032,0.58c5.419,0,10.838-0.58,16.258-1.741c-13.936-3.098-25.548-10.258-34.838-21.484
		c-9.291-11.226-13.936-24-13.936-38.322v-1.161c8.516,5.031,17.613,7.742,27.291,8.129c-8.129-5.807-14.71-13.161-19.742-22.064
		c-5.032-8.903-7.548-18.677-7.548-29.322c0-10.646,2.903-20.807,8.709-30.484C36,30,54.484,45.096,76.354,56.322
		c21.87,11.226,45.194,17.419,69.967,18.581c-0.774-4.646-1.162-9.29-1.162-13.936c0-10.838,2.71-21,8.129-30.484
		c5.42-9.483,12.773-16.935,22.064-22.354C184.644,2.709,194.709,0,205.548,0c8.901,0,17.127,1.742,24.677,5.226
		c7.548,3.484,14.225,8.129,20.031,13.936c13.937-2.709,26.902-7.548,38.903-14.516c-4.646,14.321-13.548,25.547-26.71,33.677
		c11.613-1.548,23.227-4.839,34.839-9.872c-8.517,12.388-18.774,23.032-30.773,31.936C266.902,61.935,267.095,64.451,267.095,67.935
		z"/>
</g>
<g>
	<circle fill="#FFFFFF" cx="214.781" cy="197.565" r="47.923"/>
	<path fill="#33CC99" d="M264.329,226.865c-0.727,4.359-2.704,8.154-5.934,11.383c-3.229,3.229-7.023,5.208-11.383,5.935
		s-8.559,0.201-12.594-1.574c-1.453,4.036-3.997,7.346-7.631,9.93c-3.633,2.584-7.709,3.875-12.23,3.875
		c-4.521,0-8.597-1.291-12.229-3.875c-3.634-2.584-6.178-5.894-7.631-9.93c-4.035,1.775-8.234,2.301-12.594,1.574
		s-8.153-2.705-11.383-5.935c-3.229-3.229-5.207-7.023-5.934-11.383s-0.202-8.558,1.574-12.594c-4.037-1.453-7.347-3.997-9.93-7.63
		c-2.583-3.633-3.875-7.709-3.875-12.23s1.292-8.598,3.875-12.23c2.583-3.634,5.894-6.177,9.93-7.63
		c-1.776-4.036-2.301-8.234-1.574-12.594s2.704-8.154,5.934-11.383s7.023-5.207,11.383-5.934s8.559-0.202,12.594,1.574
		c1.453-4.037,3.997-7.347,7.631-9.93c3.633-2.583,7.709-3.875,12.229-3.875c4.521,0,8.598,1.292,12.23,3.875
		c3.634,2.583,6.178,5.893,7.631,9.93c4.035-1.776,8.234-2.301,12.594-1.574s8.153,2.705,11.383,5.934s5.207,7.024,5.934,11.383
		s0.202,8.558-1.573,12.594c4.035,1.453,7.346,3.996,9.93,7.63c2.583,3.633,3.875,7.709,3.875,12.23s-1.292,8.598-3.875,12.23
		c-2.584,3.633-5.895,6.177-9.93,7.63C264.531,218.308,265.056,222.506,264.329,226.865z M250.161,180.364
		c0.808-0.808,1.211-1.736,1.211-2.786c0-1.049-0.403-1.978-1.211-2.785l-5.328-5.328c-0.808-0.807-1.736-1.211-2.786-1.211
		c-1.049,0-1.978,0.404-2.784,1.211l-36.33,36.329l-16.954-16.953c-0.807-0.808-1.735-1.211-2.784-1.211
		c-1.05,0-1.979,0.403-2.786,1.211l-5.328,5.328c-0.808,0.807-1.211,1.736-1.211,2.785s0.403,1.979,1.211,2.785l25.188,25.188
		c0.646,0.807,1.534,1.211,2.664,1.211s2.019-0.404,2.664-1.211L250.161,180.364z"/>
</g>
</svg>
