<?xml version="1.0" encoding="utf-8"?>
<!-- Generator: Adobe Illustrator 16.0.0, SVG Export Plug-In . SVG Version: 6.00 Build 0)  -->
<!DOCTYPE svg PUBLIC "-//W3C//DTD SVG 1.1//EN" "http://www.w3.org/Graphics/SVG/1.1/DTD/svg11.dtd">
<svg version="1.1" id="Layer_1" xmlns="http://www.w3.org/2000/svg" xmlns:xlink="http://www.w3.org/1999/xlink" x="0px" y="0px"
	 width="265.791px" height="232.566px" viewBox="0 0 265.791 232.566" enable-background="new 0 0 265.791 232.566"
	 xml:space="preserve">
<g>
	<path fill="#FFFFFF" d="M260.396,194.614c0,15.315-12.415,27.731-27.73,27.731H36.126c-15.315,0-27.73-12.416-27.73-27.731V34.077
		c0-15.315,12.416-27.731,27.73-27.731h196.539c15.315,0,27.73,12.416,27.73,27.731V194.614z"/>
	<path fill="#4D4D4D" d="M66.447,99.672c-4.5,0-8.394,1.641-11.682,4.932c-3.286,3.288-4.929,7.183-4.929,11.681
		c0,4.498,1.643,8.391,4.929,11.679c3.288,3.291,7.181,4.932,11.682,4.932c4.499,0,8.395-1.641,11.681-4.932
		c3.286-3.288,4.931-7.181,4.931-11.679c0-4.498-1.645-8.393-4.931-11.681C74.842,101.313,70.946,99.672,66.447,99.672z"/>
	<path fill="#4D4D4D" d="M66.447,149.506c-4.5,0-8.394,1.644-11.682,4.934c-3.286,3.288-4.929,7.181-4.929,11.679
		c0,4.497,1.643,8.393,4.929,11.681c3.288,3.288,7.181,4.932,11.682,4.932c4.499,0,8.395-1.644,11.681-4.932
		s4.931-7.184,4.931-11.681c0-4.498-1.645-8.391-4.931-11.679C74.842,151.149,70.946,149.506,66.447,149.506z"/>
	<path fill="#B3B3B3" d="M258.522,7.267C253.676,2.424,247.794,0,240.872,0H24.918c-6.922,0-12.805,2.424-17.65,7.267
		C2.423,12.114,0,17.996,0,24.917v182.732c0,6.921,2.423,12.803,7.268,17.65c4.846,4.845,10.729,7.267,17.65,7.267h215.954
		c6.922,0,12.804-2.422,17.65-7.267c4.845-4.848,7.269-10.729,7.269-17.65V24.917C265.791,17.996,263.367,12.114,258.522,7.267z
		 M249.177,207.649c0,2.422-0.776,4.412-2.334,5.969c-1.557,1.558-3.547,2.336-5.971,2.336H24.918c-2.424,0-4.414-0.778-5.972-2.336
		c-1.557-1.557-2.334-3.547-2.334-5.969V24.917c0-2.419,0.777-4.412,2.334-5.969c1.558-1.557,3.547-2.336,5.972-2.336h215.954
		c2.424,0,4.414,0.779,5.971,2.336c1.558,1.557,2.334,3.55,2.334,5.969V207.649z"/>
	<path fill="#4D4D4D" d="M212.839,156.775H102.785c-0.69,0-1.386,0.345-2.076,1.038c-0.691,0.692-1.038,1.384-1.038,2.076v12.459
		c0,0.694,0.347,1.384,1.038,2.076c0.69,0.693,1.386,1.038,2.076,1.038h110.054c0.692,0,1.385-0.345,2.076-1.038
		c0.691-0.692,1.038-1.382,1.038-2.076V159.89c0-0.692-0.347-1.384-1.038-2.076C214.224,157.12,213.531,156.775,212.839,156.775z"/>
	<path fill="#33CC99" d="M212.839,57.103H102.785c-0.69,0-1.386,0.345-2.076,1.038c-0.691,0.696-1.038,1.383-1.038,2.077v12.459
		c0,0.692,0.347,1.383,1.038,2.076c0.69,0.692,1.386,1.038,2.076,1.038h110.054c0.692,0,1.385-0.346,2.076-1.038
		c0.691-0.693,1.038-1.384,1.038-2.076V60.218c0-0.694-0.347-1.381-1.038-2.077C214.224,57.448,213.531,57.103,212.839,57.103z"/>
	<path fill="#4D4D4D" d="M212.839,106.939H102.785c-0.69,0-1.386,0.344-2.076,1.038c-0.691,0.692-1.038,1.382-1.038,2.076v12.459
		c0,0.693,0.347,1.384,1.038,2.076c0.69,0.693,1.386,1.038,2.076,1.038h110.054c0.692,0,1.385-0.345,2.076-1.038
		c0.691-0.692,1.038-1.383,1.038-2.076v-12.459c0-0.694-0.347-1.384-1.038-2.076C214.224,107.284,213.531,106.939,212.839,106.939z"
		/>
	<circle fill="#33CC99" cx="66.526" cy="68.971" r="18.059"/>
	<path fill="#FFFFFF" d="M60.538,66.716c0.263,0,0.486,0.092,0.671,0.275c0.185,0.186,0.276,0.41,0.276,0.672v9.475
		c0,0.263-0.092,0.487-0.276,0.67c-0.185,0.187-0.408,0.278-0.671,0.278h-3.159c-0.263,0-0.486-0.091-0.671-0.278
		c-0.184-0.183-0.276-0.407-0.276-0.67v-9.475c0-0.262,0.093-0.487,0.276-0.672c0.185-0.184,0.408-0.275,0.671-0.275H60.538z
		 M58.957,76.507c0.265,0,0.488-0.092,0.672-0.276c0.186-0.184,0.276-0.406,0.276-0.671c0-0.261-0.09-0.486-0.276-0.671
		c-0.184-0.184-0.407-0.276-0.672-0.276c-0.263,0-0.485,0.093-0.67,0.276c-0.185,0.186-0.276,0.41-0.276,0.671
		c0,0.265,0.091,0.487,0.276,0.671C58.472,76.415,58.694,76.507,58.957,76.507z M71.591,61.072c0-1.265-0.355-2.161-1.065-2.685
		c-0.475-0.343-1.066-0.515-1.777-0.515c-0.342,0-0.644,0.289-0.908,0.869c-0.131,0.316-0.276,0.778-0.435,1.383v0.038
		c-0.131,0.579-0.249,1.001-0.355,1.265c-0.158,0.447-0.368,0.802-0.631,1.065c-0.421,0.395-0.947,1.052-1.58,1.973
		c-0.762,1.107-1.409,1.936-1.935,2.489c-0.105,0.077-0.158,0.183-0.158,0.315v8.448c0,0.134,0.046,0.245,0.139,0.337
		c0.092,0.092,0.204,0.137,0.335,0.137c0.447,0,1.125,0.205,2.033,0.613c0.908,0.408,1.626,0.691,2.151,0.849
		c0.896,0.289,1.765,0.434,2.606,0.434h0.119c1.158,0,2.013-0.053,2.566-0.158c0.919-0.157,1.552-0.486,1.894-0.989
		c0.343-0.499,0.435-1.089,0.276-1.776c0.316-0.368,0.541-0.829,0.671-1.381c0.132-0.551,0.119-1.08-0.039-1.578
		c0.342-0.449,0.54-0.963,0.592-1.541c0.052-0.578-0.027-1.118-0.237-1.62h0.04c0.21-0.235,0.388-0.526,0.532-0.868
		c0.145-0.343,0.218-0.698,0.218-1.066c0-0.605-0.23-1.139-0.691-1.599c-0.461-0.461-1.02-0.691-1.679-0.691h-3.986
		c0.052-0.262,0.225-0.672,0.514-1.224c0.262-0.475,0.447-0.843,0.552-1.105C71.513,62.02,71.591,61.545,71.591,61.072z"/>
</g>
</svg>
